HIERARCHY
ROOT Hips
{
	OFFSET 0.000000 0.000000 0.000000
	CHANNELS 6 Xposition Yposition Zposition Zrotation Yrotation Xrotation 
	JOINT LHipJoint
	{
		OFFSET 0.000000 0.000000 0.000000
		CHANNELS 3 Zrotation Yrotation Xrotation
		JOINT LeftUpLeg
		{
			OFFSET 8.178360 -10.767780 5.035740
			CHANNELS 3 Zrotation Yrotation Xrotation
			JOINT LeftLeg
			{
				OFFSET 14.688660 -40.356780 0.000000
				CHANNELS 3 Zrotation Yrotation Xrotation
				JOINT LeftFoot
				{
					OFFSET 15.373200 -42.237540 0.000000
					CHANNELS 3 Zrotation Yrotation Xrotation
					JOINT LeftToeBase
					{
						OFFSET 0.945840 -2.598660 13.935300
						CHANNELS 3 Zrotation Yrotation Xrotation
						End Site
						{
							OFFSET 0.000000 0.000000 0.000000
						}
					}
				}
			}
		}
	}
	JOINT RHipJoint
	{
		OFFSET 0.000000 0.000000 0.000000
		CHANNELS 3 Zrotation Yrotation Xrotation
		JOINT RightUpLeg
		{
			OFFSET -7.833120 -10.767780 5.035740
			CHANNELS 3 Zrotation Yrotation Xrotation
			JOINT RightLeg
			{
				OFFSET -15.255180 -41.913300 0.000000
				CHANNELS 3 Zrotation Yrotation Xrotation
				JOINT RightFoot
				{
					OFFSET -15.409560 -42.337380 0.000000
					CHANNELS 3 Zrotation Yrotation Xrotation
					JOINT RightToeBase
					{
						OFFSET -0.988380 -2.715540 14.178900
						CHANNELS 3 Zrotation Yrotation Xrotation
						End Site
						{
							OFFSET 0.000000 0.000000 0.000000
						}
					}
				}
			}
		}
	}
	JOINT LowerBack
	{
		OFFSET 0.000000 0.000000 0.000000
		CHANNELS 3 Zrotation Yrotation Xrotation
		JOINT Spine
		{
			OFFSET 0.169620 12.213540 -1.160280
			CHANNELS 3 Zrotation Yrotation Xrotation
			JOINT Spine1
			{
				OFFSET 0.340320 12.293100 -0.256500
				CHANNELS 3 Zrotation Yrotation Xrotation
				JOINT Neck
				{
					OFFSET 0.000000 0.000000 0.000000
					CHANNELS 3 Zrotation Yrotation Xrotation
					JOINT Neck1
					{
						OFFSET -0.325020 10.477440 1.032120
						CHANNELS 3 Zrotation Yrotation Xrotation
						JOINT Head
						{
							OFFSET 0.624420 10.568160 -0.743820
							CHANNELS 3 Zrotation Yrotation Xrotation
							End Site
							{
								OFFSET 0.000000 0.000000 0.000000
							}
						}
					}
				}
				JOINT LeftShoulder
				{
					OFFSET 0.000000 0.000000 0.000000
					CHANNELS 3 Zrotation Yrotation Xrotation
					JOINT LeftArm
					{
						OFFSET 20.174460 7.205340 -1.867260
						CHANNELS 3 Zrotation Yrotation Xrotation
						JOINT LeftForeArm
						{
							OFFSET 29.898000 -0.000000 -0.000000
							CHANNELS 3 Zrotation Yrotation Xrotation
							JOINT LeftHand
							{
								OFFSET 20.901360 -0.000000 -0.000000
								CHANNELS 3 Zrotation Yrotation Xrotation
								JOINT LeftFingerBase
								{
									OFFSET 0.000000 0.000000 0.000000
									CHANNELS 3 Zrotation Yrotation Xrotation
									JOINT LeftHandIndex1
									{
										OFFSET 4.291560 -0.000000 -0.000000
										CHANNELS 3 Zrotation Yrotation Xrotation
										End Site
										{
											OFFSET 0.000000 0.000000 0.000000
										}
									}
								}
								JOINT LThumb
								{
									OFFSET 0.000000 0.000000 0.000000
									CHANNELS 3 Zrotation Yrotation Xrotation
									End Site
									{
										OFFSET 0.000000 0.000000 0.000000
									}
								}
							}
						}
					}
				}
				JOINT RightShoulder
				{
					OFFSET 0.000000 0.000000 0.000000
					CHANNELS 3 Zrotation Yrotation Xrotation
					JOINT RightArm
					{
						OFFSET -18.819600 8.244300 -2.427900
						CHANNELS 3 Zrotation Yrotation Xrotation
						JOINT RightForeArm
						{
							OFFSET -31.451400 -0.000000 -0.000000
							CHANNELS 3 Zrotation Yrotation Xrotation
							JOINT RightHand
							{
								OFFSET -20.665020 -0.000000 -0.000000
								CHANNELS 3 Zrotation Yrotation Xrotation
								JOINT RightFingerBase
								{
									OFFSET 0.000000 0.000000 0.000000
									CHANNELS 3 Zrotation Yrotation Xrotation
									JOINT RightHandIndex1
									{
										OFFSET -3.735180 -0.000000 -0.000000
										CHANNELS 3 Zrotation Yrotation Xrotation
										End Site
										{
											OFFSET 0.000000 0.000000 0.000000
										}
									}
								}
								JOINT RThumb
								{
									OFFSET 0.000000 0.000000 0.000000
									CHANNELS 3 Zrotation Yrotation Xrotation
									End Site
									{
										OFFSET 0.000000 0.000000 0.000000
									}
								}
							}
						}
					}
				}
			}
		}
	}
}
MOTION
Frames:	8
Frame Time:	0.0333333
-37.316592 106.426236 67.381326 2.013296 87.423180 4.660534 -5.549180 1.568505 4.254423 -15.557707 -10.283365 2.702802 -0.399177 7.235508 22.081585 2.522001 -11.776391 -1.833767 0.084900 1.879600 5.173000 2.453110 0.236394 -0.582961 9.426022 7.702564 -29.156305 -0.024219 -7.961943 21.851298 -1.890650 4.231417 8.860065 -1.660200 8.119200 -23.076700 -3.312546 2.843369 10.286440 1.369688 3.574073 -0.113640 2.329248 1.498598 -4.075951 -8.948207 -1.556552 -16.188546 2.533431 0.454242 21.701618 3.084700 -0.717400 15.736500 -3.425187 -1.969508 -1.162278 -76.134847 -0.575219 68.037567 77.021352 -57.799296 -56.536054 1.246072 -2.557062 -15.861312 18.441460 32.843150 10.784500 -7.125000 0.000000 0.000000 -20.660200 66.135900 -10.734100 3.309017 1.159752 -1.415010 77.797164 -7.369560 54.858220 -94.896246 59.509881 -67.853941 0.489749 0.558206 -14.647588 -17.529186 2.483309 -0.668800 7.125000 0.000000 0.000000 6.500800 -27.812500 2.732900 
-35.069406 106.498356 67.577502 4.251191 89.558360 6.833307 -5.379463 1.666976 4.228721 -15.330162 -11.488827 3.726198 -0.242309 7.539939 23.062190 2.578065 -13.779511 0.580339 0.247700 3.202700 8.843600 2.508123 0.141265 -0.440708 9.614802 8.024150 -27.890744 -0.114596 -8.186781 22.686314 -2.421406 6.811989 9.871767 -1.850900 8.548300 -24.392200 -2.808382 2.689430 10.474928 1.506572 3.453194 -0.055866 2.412228 1.431207 -4.058148 -8.691039 -1.231978 -16.077468 2.370050 0.863002 21.735714 3.000800 -0.529900 15.668700 -3.399646 -1.986006 -1.156925 -76.415566 -0.291825 68.302704 76.638403 -57.721255 -56.256887 1.329628 -2.487081 -15.424551 16.238093 32.530056 9.254300 -7.125000 0.000000 0.000000 -22.885400 65.124200 -11.409500 3.347167 1.110795 -1.421106 77.649866 -7.993559 54.936669 -95.158907 59.509508 -68.041579 0.534682 0.540328 -13.316275 -18.194332 3.109253 -0.913000 7.125000 0.000000 0.000000 5.937100 -27.139000 2.588100 
-32.446368 106.916376 68.071920 -81.002169 89.159906 -78.539284 -4.900970 2.778152 4.656956 -14.252214 -11.708312 3.986643 -0.210678 7.981813 23.756895 2.547798 -15.320679 3.832471 0.305100 3.551200 9.817400 2.916439 1.011776 -0.706624 10.081593 10.069537 -25.592053 -0.145004 -7.896863 23.086655 -2.903321 9.575937 15.768188 -0.077700 1.798700 -4.949600 -2.052966 3.048434 10.320344 1.702924 3.882686 0.006040 2.651659 1.862027 -3.990572 -8.201263 -0.739126 -15.822212 1.787472 1.473542 21.824533 2.691900 -0.286700 15.570500 -3.329687 -1.817856 -1.189115 -76.784887 0.390959 68.547513 76.003236 -57.582018 -55.626220 1.231060 -2.571791 -14.256130 17.485512 33.071595 10.203400 -7.125000 0.000000 0.000000 -22.073900 66.041000 -11.451100 3.441318 1.218632 -1.378826 77.163058 -8.698211 55.609049 -95.415735 59.518843 -68.246316 0.560238 0.510836 -12.241148 -18.215003 3.771761 -1.147800 7.125000 0.000000 0.000000 5.884900 -26.420700 2.664900 
-29.853888 107.308734 68.135478 -144.307309 86.332656 -142.066854 -4.299339 2.256564 4.248765 -13.440024 -12.830093 4.701106 0.229029 8.572494 26.211973 2.362473 -15.566304 7.020155 0.169700 2.653700 7.316100 3.315538 0.305642 -0.251652 10.996095 9.355465 -24.542997 -0.209598 -8.314201 23.422758 -2.063439 4.683643 14.269938 -0.326400 3.672300 -10.156400 0.230480 2.342653 10.664511 2.033598 3.420318 -0.013889 2.413241 1.504610 -4.179360 -7.672133 -0.231235 -15.394274 0.905525 2.102769 21.760698 2.213400 -0.055400 15.346800 -3.287384 -2.004365 -1.181410 -77.406454 1.169594 68.533971 75.096432 -57.376285 -54.809506 1.201768 -2.607627 -14.023131 17.809073 33.140273 10.446100 -7.125000 0.000000 0.000000 -21.781700 66.229500 -11.387000 3.507001 0.988710 -1.422528 75.723211 -9.234391 56.850590 -95.796438 59.516006 -68.561831 0.553423 0.501364 -13.620459 -17.874292 4.226953 -1.285700 7.125000 0.000000 0.000000 6.124600 -25.924700 2.846000 
-27.192954 107.667474 68.216148 -161.125342 84.396901 -159.191467 -4.477835 1.905126 4.006422 -13.335840 -12.967714 4.098459 0.827931 9.545256 29.598145 2.125337 -16.007322 11.838116 0.110500 2.143200 5.901600 2.957664 -0.057622 0.046276 11.251577 7.714401 -23.323923 -0.311531 -8.525982 23.960796 -1.985582 4.606771 12.275176 -0.578100 4.868800 -13.534800 0.852025 1.872101 10.967572 2.121941 2.941071 -0.001632 2.123189 1.230225 -4.204727 -7.736029 0.040032 -15.642915 0.973811 2.605787 22.288754 2.349000 0.133200 15.686700 -3.293205 -2.014819 -1.205877 -77.863394 2.244403 68.054773 74.741475 -57.307844 -54.528752 1.183066 -2.607663 -12.892852 17.295174 32.876563 10.033900 -7.125000 0.000000 0.000000 -22.091600 65.814100 -11.345900 3.515360 0.920401 -1.449746 76.226264 -9.236492 56.581731 -94.937847 59.512843 -67.847853 0.550485 0.480328 -13.428408 -17.308162 4.576849 -1.362200 7.125000 0.000000 0.000000 6.544000 -25.552000 3.100500 
-24.467244 108.097722 68.221650 -161.373830 82.497388 -160.401517 -4.277098 1.827376 3.748808 -12.584155 -12.696154 2.863567 1.707364 10.901146 34.182937 1.962972 -14.665197 20.089682 0.527300 4.653200 12.922100 2.956030 -0.183430 0.372225 12.291352 5.970388 -20.969681 -0.322697 -8.440735 23.902369 -1.966790 4.704641 11.366962 -0.357500 3.841300 -10.630500 2.448634 1.489886 11.829594 2.264999 2.744256 0.069522 1.620600 1.155266 -4.422113 -8.413083 0.155132 -15.764396 1.486174 3.070145 22.901473 2.865200 0.261600 16.058100 -3.311213 -1.914609 -1.233437 -77.965968 3.634942 68.128904 74.964749 -57.381490 -54.763805 1.020525 -2.655101 -10.590644 18.666445 32.212765 10.756100 -7.125000 0.000000 0.000000 -19.734000 65.619200 -10.002200 3.513415 0.960085 -1.439140 75.519262 -9.319219 57.107038 -94.319028 59.507400 -67.323882 0.534724 0.424543 -13.025537 -15.932888 5.222637 -1.455200 7.125000 0.000000 0.000000 7.568200 -24.863600 3.715500 
-21.677970 108.558528 68.365266 -155.912555 80.013146 -154.202954 -4.008343 1.632065 3.310876 -9.739986 -11.832172 -1.652243 2.842679 12.338418 39.031874 2.412812 -12.158830 30.479657 1.100100 6.664800 18.726100 3.108920 -0.129436 0.584237 14.294174 5.062243 -19.898907 -0.256717 -8.139813 23.289984 -1.762540 4.039261 10.382738 -0.167300 2.635200 -7.264700 4.673574 1.332649 10.347531 2.500020 2.767683 -0.007543 1.116413 1.203424 -3.676958 -8.549734 0.003279 -16.276626 1.486123 2.999496 23.254395 2.928600 0.192100 16.385600 -3.289255 -1.846486 -1.243028 -77.619112 3.039883 69.071088 74.363911 -57.253303 -54.223716 0.879458 -2.691937 -9.717722 20.100627 31.386110 11.480600 -7.125000 0.000000 0.000000 -17.119000 65.289100 -8.508800 3.541803 0.980434 -1.451156 75.201571 -8.697521 56.832674 -93.882056 59.538929 -66.963944 0.498393 0.365175 -12.010327 -14.168021 5.424500 -1.352400 7.125000 0.000000 0.000000 8.909500 -24.654600 4.432000 
-19.206492 108.859824 68.493000 -157.115144 78.244006 -156.515898 -3.792562 1.438327 2.884253 -8.652776 -10.931138 -4.497400 4.260654 13.765739 44.330118 2.588274 -12.919775 34.117384 1.596000 7.968400 22.618100 3.112100 -0.302108 0.905873 15.190371 4.772552 -16.782792 -0.205806 -7.847907 22.608303 -1.325550 2.306927 9.219868 -0.007100 0.542600 -1.490900 5.582300 1.313054 11.466104 2.559085 2.979011 0.145523 0.644824 1.339976 -3.831292 -8.530793 -0.131828 -16.475567 1.391178 2.858612 23.367289 2.883100 0.122400 16.532300 -3.293455 -1.842421 -1.236338 -77.664783 2.641727 69.129057 74.382233 -57.246892 -54.290260 0.896680 -2.666872 -8.635473 19.064306 31.163805 10.731800 -7.125000 0.000000 0.000000 -18.157700 64.733700 -8.807100 3.556777 1.037610 -1.422036 74.529139 -8.054156 57.346756 -94.335689 59.539421 -67.341701 0.481287 0.382744 -12.619354 -14.183652 4.931325 -1.220100 7.125000 0.000000 0.000000 8.934700 -25.172100 4.336100 
